# xmcd
# 
# Track frame offsets:
#     182
#     12787
#     28915
#     40780
#     56112
#     71055
#     83865
#     95657
#     109422
#     119430
#     129615
#     149400
#     162745
#     176297
# 
# Disc length: 2514
# 
# Revision: 1
# Processed by: cddbd v1.5.2PL0 Copyright (c) Steve Scherf et al.
# Submitted via: fre:ac v1.0.31
# 
DISCID=cd09d00e
DTITLE=Roots of Rhythm - Unchain My Heart
DYEAR=2000
DGENRE=R&B
TTITLE0=Aretha Franklin/ Chain of Fools
TTITLE1=Bobby "Blue" Bland/ This Time I'm Gone for Good
TTITLE2=Erma Franklin/Piece of My Heart
TTITLE3=Big Joe Turner/Chains of Love
TTITLE4=Esther Phillips/ Release Me
TTITLE5=percy Sledge/It Tears Me Up
TTITLE6=Etta James/I'd Rather Go Blind
TTITLE7=Ray Charles/A fool for You
TTITLE8=The Drifters/I count the Tears
TTITLE9=Gloria Jones/Tainted Love
TTITLE10=Gladys Knight and the Pips/Neither One of Us
TTITLE11=The Jackson 5/Never Can Say Goodbye
TTITLE12=Brenda Holloway/Every Little Bit Hurts
TTITLE13=Otis Redding/I Can't Turn You Loose
EXTD=
EXTT0=
EXTT1=
EXTT2=
EXTT3=
EXTT4=
EXTT5=
EXTT6=
EXTT7=
EXTT8=
EXTT9=
EXTT10=
EXTT11=
EXTT12=
EXTT13=
PLAYORDER=
